<?xml version="1.0" encoding="utf-8"?>
<!-- Generator: Adobe Illustrator 16.0.0, SVG Export Plug-In . SVG Version: 6.00 Build 0)  -->
<!DOCTYPE svg PUBLIC "-//W3C//DTD SVG 1.1//EN" "http://www.w3.org/Graphics/SVG/1.1/DTD/svg11.dtd">
<svg version="1.1"
	 id="svg2" sodipodi:docname="741.eps" xmlns:inkscape="http://www.inkscape.org/namespaces/inkscape" xmlns:sodipodi="http://sodipodi.sourceforge.net/DTD/sodipodi-0.dtd" xmlns:svg="http://www.w3.org/2000/svg"
	 xmlns="http://www.w3.org/2000/svg" xmlns:xlink="http://www.w3.org/1999/xlink" x="0px" y="0px" width="663.467px"
	 height="664.291px" viewBox="0 0 663.467 664.291" enable-background="new 0 0 663.467 664.291" xml:space="preserve">
<sodipodi:namedview  inkscape:deskcolor="#d1d1d1" inkscape:pagecheckerboard="0" inkscape:pageopacity="0.0" inkscape:showpageshadow="2" borderopacity="0.25" bordercolor="#000000" pagecolor="#ffffff" id="namedview4">
	</sodipodi:namedview>
<g id="g8" transform="matrix(1.3333333,0,0,-1.3333333,0,788.30667)" inkscape:groupmode="layer" inkscape:label="ink_ext_XXXXXX">
	<g id="g10" transform="scale(0.1)">
		<path id="path12" fill="none" stroke="#1A1817" stroke-width="7.5" stroke-linecap="round" stroke-linejoin="round" d="
			M4208.985,4661.712c0-0.081,0.015-0.161,0.015-0.242"/>
		<path id="path14" fill="none" stroke="#1A1817" stroke-width="7.5" stroke-linecap="round" stroke-linejoin="round" d="
			M4190.323,2432.52l-0.022-0.022c-0.022-0.015-0.022-0.015-0.022-0.015"/>
		<path id="path16" fill="none" stroke="#1A1817" stroke-width="7.5" stroke-linecap="round" stroke-linejoin="round" d="
			M4158.082,2390.75l0.022,0.022"/>
		<path id="path18" fill="none" stroke="#1A1817" stroke-width="7.5" stroke-linecap="round" stroke-linejoin="round" d="
			M4189.635,2431.626v-0.015"/>
		<path id="path20" fill="none" stroke="#1A1817" stroke-width="7.5" stroke-linecap="round" stroke-linejoin="round" d="
			M4189.95,2432.036v-0.015"/>
		<path id="path22" fill="none" stroke="#1A1817" stroke-width="7.5" stroke-linecap="round" stroke-linejoin="round" d="
			M4190.074,2432.198v-0.015"/>
		<path id="path24" fill="#1A1817" d="M4910.719,3352.409c-0.857-28.597-2.344-57.158-4.175-85.697
			c-3.582-55.77-9.353-111.401-16.655-166.772c-1.077-7.698-2.168-15.388-3.318-23.049c-4.006-0.139-8.005-0.26-12.041-0.381
			c-2.227,2.67-5.581,4.38-9.265,4.42c-10.869,0.11-21.746-0.179-32.622-0.319c-5.889-0.07-11.777-0.11-17.659-0.132
			c-0.022,0-0.044,0-0.066,0c-2.249,0-4.504-0.018-6.738-0.018c-31.216-0.04-62.446,0.348-93.647,1.271
			c-17.241,0.491-34.512,1.198-51.753,2.04c-5.977,0.3-11.96,0.608-17.937,0.938c-1.538,0.363-3.12,0.531-4.709,0.531
			c-0.754,0-1.501-0.04-2.278-0.128c-0.066,0.018-0.132,0.018-0.19,0.018c-2.893,0.172-5.75,0.311-8.643,0.432
			c-1.648,7.427-3.53,14.817-5.288,22.218c-0.652,2.71-1.304,5.42-1.956,8.13c0.095,1.49-0.015,2.999-0.527,4.479
			c-0.637,1.901-1.26,3.812-1.897,5.72c-1.934,8.082-3.831,16.172-5.632,24.291c-6.387,28.839-11.301,57.971-16.487,87.041
			c-1.362,7.511-2.615,15.059-4.065,22.559c-1.538,7.863-2.871,15.791-4.607,23.602c-1.868,8.35-3.75,16.71-5.61,25.049
			c-1.729,7.661-3.853,15.249-5.771,22.888c-3.391,13.451-7.2,26.873-11.44,40.111c-4.651,14.542-9.331,29.11-14.648,43.429
			c-5.588,14.993-11.184,29.93-17.102,44.78c-5.969,15.011-12.217,29.883-18.479,44.762c-11.418,27.228-23.416,54.298-35.859,81.101
			c-6.467,13.92-12.708,27.979-19.453,41.788c-4.241,8.69-8.474,17.41-12.715,26.089c-2.534,5.2-4.958,10.463-7.639,15.582
			c-7.053,13.4-13.835,26.927-21.255,40.111c-6.46,11.448-12.847,22.947-19.468,34.307c-0.872,1.641-1.743,3.281-2.593,4.933
			c-6.57,12.689-13.564,25.148-20.471,37.657c-3.201,5.812-6.628,11.503-9.946,17.252c-3.164,5.431-6.218,10.961-9.492,16.329
			c-7.375,12.07-14.48,24.371-22.236,36.182c-7.991,12.136-15.74,24.437-24.133,36.27c-8.752,12.297-17.417,24.609-26.499,36.64
			c-4.519,5.969-9.009,11.968-13.579,17.908c-1.56,3.16-3.113,6.321-4.49,9.562c-6.021,13.989-12.063,27.971-18.062,41.968
			c-1.75,4.333-3.42,8.69-5.098,13.03c-1.223,3.12-2.695,5.632-5.691,7.372c-0.454,0.271-0.959,0.399-1.443,0.611
			c2.71,20.427,5.193,40.898,7.383,61.377c7.91,73.561,12.488,147.451,13.806,221.422c2.673,149.549-8.379,299.319-32.629,446.909
			c-4.321,26.239-9.119,52.39-14.37,78.46c1.729,0.491,3.398,1.249,4.944,2.289c8.32,5.592,16.816,10.851,25.92,15.069
			c27.305,10.613,56.44,14.971,85.334,19.062c23.701,2.53,47.402,4.028,71.169,5.559c11.462,0.721,22.932,1.56,34.417,2.6
			c55.759-74.689,107.219-152.428,154.233-232.991c51.841-88.898,97.551-181.289,137.9-275.929
			c40.671-97.32,75.242-196.941,103.411-298.59c28.184-101.799,49.124-205.529,63.75-310.119
			c13.901-106.853,21.226-214.402,21.833-322.152C4912.63,3405.66,4911.517,3379.029,4910.719,3352.409L4910.719,3352.409z
			 M4827.105,2791.348c-27.737-102.861-62.871-203.599-103.894-301.846c-40.994-96.321-87.788-189.88-140.398-280.371
			c-53.672-92.322-113.892-180.71-178.975-265.32c-63.069-80.771-130.898-157.588-203.174-230.149
			c-73.792-74.092-152.673-143.064-235.232-207.166c-10.32-7.91-20.713-15.71-31.15-23.459c-7.244,2.959-15.278,4.27-22.991,5.852
			c-8.672,1.758-17.278,3.882-25.898,5.903c-11.294,2.666-22.529,5.588-33.75,8.606c0.41,0.938,0.754,1.941,1.055,3.018
			c1.655,5.947,0.806,12.444-2.314,17.783c-3.025,5.149-8.02,8.994-13.792,10.583c-1.978,0.549-4.219,0.85-6.489,0.85
			c-2.263,0-4.541-0.33-6.65-0.974c0.952,3.479,1.897,6.973,2.849,10.474c1.699,6.299,3.333,12.634,4.98,18.955
			c12.949,33.303,25.107,66.914,36.563,100.745c13.638,40.349,26.089,81.079,37.5,122.087c8.789,31.553,16.758,63.303,24.25,95.178
			c4.336,17.952,8.496,35.94,12.429,53.965c16.897,77.109,30.037,155.076,39.419,233.489c1.069,0.037,2.117,0.352,2.959,0.996
			c1.882,1.436,3.706,2.761,5.369,4.475c1.392,1.406,2.607,2.937,4.058,4.307c2.227,2.102,4.453,4.219,6.672,6.321
			c4.958,4.673,10.093,9.221,15.154,13.792c1.934,1.787,2.08,4.849,0.754,7.002c0.564,0.688,1.143,1.399,1.714,2.08
			c9.778,12.056,19.849,23.965,29.297,36.306c20.251,26.47,40.408,52.961,60.432,79.578c16.23,21.57,32.41,43.206,48.889,64.592
			c-0.103-0.11-0.198-0.227-0.271-0.352c0.022,0.066,0.051,0.103,0.088,0.139c0.242,0.315,0.476,0.63,0.732,0.945
			c0.051,0.095,0.11,0.176,0.19,0.278c-0.081-0.117-0.146-0.22-0.227-0.33c0.249,0.33,0.505,0.659,0.769,0.989
			c0.022,0.022,0.037,0.059,0.059,0.081c0.081,0.103,0.146,0.198,0.227,0.293c-0.015-0.022-0.015-0.022-0.037-0.044
			c10.349,13.418,20.72,26.821,31.069,40.261c0-0.022-0.022-0.037-0.022-0.059c0.022,0.037,0.044,0.059,0.059,0.081
			c0,0.015,0.022,0.015,0.022,0.037l-0.022-0.022c0.022,0.022,0.022,0.044,0.044,0.066v-0.022c0.051,0.066,0.132,0.168,0.212,0.293
			c0.11,0.117,0.205,0.227,0.3,0.366c0,0,0,0,0,0.022l0.015,0.022c0.022,0,0.044,0.015,0.044,0.037s0,0.022,0.015,0.022
			c0.022,0.015,0.044,0.037,0.044,0.059v0.022l0.022,0.015c0.015,0.022,0.015,0.022,0.037,0.029
			c0.022,0.022,0.044,0.044,0.059,0.066c0.044,0.037,0.066,0.095,0.095,0.146l0.015,0.022v0.022
			c0.022,0.015,0.044,0.059,0.066,0.081c0-0.022-0.022-0.022-0.022-0.044c0.022,0.007,0.029,0.029,0.059,0.059
			c0,0,0,0.022,0.022,0.022c0,0.022,0,0.022,0.015,0.037c0.022,0.037,0.044,0.051,0.066,0.095c0.015,0.022,0.015,0.022,0.037,0.037
			c0.022,0.022,0.022,0.044,0.044,0.059c0,0,0.015,0,0.015,0.022c0,0,0,0,0.022,0.022c0,0,0,0,0,0.022
			c0.088,0.117,0.168,0.205,0.271,0.33c0.022,0.037,0.059,0.081,0.081,0.095c0.022,0.022,0.037,0.044,0.059,0.066
			c0.022,0.015,0.022,0.015,0.044,0.037h-0.022c0.059,0.073,0.088,0.154,0.168,0.227c0.198,0.256,0.388,0.513,0.608,0.762
			c-0.015,0-0.015,0-0.015,0c9.91,12.744,19.805,25.488,29.678,38.254c-0.022-0.015-0.044-0.029-0.044-0.029
			c0.022,0.029,0.066,0.066,0.081,0.11c0-0.022-0.015-0.044-0.015-0.066c0.315,0.41,0.608,0.806,0.916,1.216
			c-0.037-0.044-0.066-0.081-0.088-0.103c0.308,0.41,0.637,0.82,0.952,1.23c9.895,12.751,19.775,25.496,29.619,38.291
			c0.22,0.271,0.439,0.527,0.637,0.798c-0.037-0.044-0.059-0.081-0.081-0.103c0.103,0.139,0.212,0.3,0.33,0.439
			c0,0.022,0.022,0.044,0.044,0.066c0-0.022,0-0.022,0-0.022c0.022,0.022,0.037,0.059,0.059,0.081
			c0.022,0.015,0.037,0.037,0.037,0.059c0.044,0.037,0.066,0.059,0.081,0.081c-0.549-0.718-1.106-1.421-1.641-2.124
			c10.173,13.184,20.376,26.331,30.535,39.5c-0.073-0.073-0.11-0.139-0.161-0.22c0.22,0.3,0.439,0.571,0.667,0.864
			c0.081,0.132,0.183,0.249,0.271,0.359c-0.352-0.447-0.681-0.901-1.04-1.348c37.844,48.574,75.864,97.039,112.852,146.25
			c19.211,25.562,38.328,51.174,57.546,76.721c17.212,22.83,34.805,45.344,52.126,68.079c17.93,23.569,35.94,47.058,53.687,70.745
			c18.713,24.954,37.053,50.153,55.063,75.623c14.971,21.211,29.495,42.729,44.795,63.691c1.443,2.461,2.344,5.068,2.732,7.811
			c17.051-1.143,34.109-2.04,51.182-2.823c32.007-1.428,64.036-2.139,96.072-2.139c2.08,0,4.16,0,6.24,0c0.198,0,0.41,0,0.63,0.022
			c4.958,0.018,9.917,0.04,14.89,0.099c11.587,0.081,23.24,0.161,34.819,0.839c3.896,0.103,7.449,1.981,9.675,4.893
			c3.135,0.07,6.24,0.168,9.338,0.267C4870.179,2970.671,4851.129,2880.44,4827.105,2791.348L4827.105,2791.348z M3614.72,1272.173
			c0.652,0.278,1.311,0.549,1.963,0.835C3616.031,1272.722,3615.372,1272.451,3614.72,1272.173z M2488.629,1004.341
			c-1.348,0-2.725,0-4.08,0c-106.355,0-212.688,7.551-318.105,21.262c-105.374,14.546-209.597,35.684-312.305,63.376
			c-103.718,27.949-205.386,63.362-304.49,104.773c-97.837,41.719-192.898,89.561-284.758,143.247
			c-82.559,48.23-161.982,101.711-238.271,159.28c4.512,5.522,9.038,11.023,13.572,16.538c3.567,4.351,7.397,8.533,11.162,12.729
			c6.724,7.515,13.748,14.795,21.555,21.182c3.779,2.813,7.69,5.435,11.66,7.961c9.543-7.002,19.724-13.608,30.249-18.94
			c12.473-6.299,25.173-12.341,38.181-17.6c13.704-8.438,28.11-15.71,42.268-23.357c5.303-2.871,10.547-5.962,15.974-8.569
			c9.851-4.709,19.688-9.434,29.517-14.143c6.541-3.149,12.971-6.379,19.68-9.082c10.349-4.197,20.713-8.401,31.069-12.598
			c5.53-2.263,11.023-4.534,16.67-6.511c11.03-3.831,22.053-7.668,33.076-11.521c16.208-5.64,32.959-9.719,49.468-14.348
			c6.277-1.75,12.656-3.127,18.992-4.592c9.119-2.139,18.245-4.255,27.385-6.394c16.875-3.955,33.794-7.742,50.64-11.814
			c33.435-8.057,66.665-16.912,100.042-25.078c4.021-0.989,8.123-1.67,12.158-2.49c4.08-0.85,8.167-1.831,12.283-2.52
			c9.243-1.553,18.479-3.098,27.737-4.629c17.227-2.864,34.563-5.186,51.863-7.61c34.072-4.812,68.423-7.573,102.832-8.24
			c35.127-0.674,70.261-0.967,105.396-2.285c23.167-0.879,46.304-2.065,69.47-2.937c8.123-0.308,15.11,5.808,17.073,13.337
			c3.018,0.081,6.021,0.205,9.023,0.315c1.018-1.743,2.388-3.215,4.285-4.314c2.871-1.677,6.365-2.139,9.565-1.252
			c3.428,0.945,6.423,3.582,8.02,6.863c5.435,0.432,10.847,0.959,16.26,1.619c73.228-48.42,149.136-92.791,227.088-133.081
			c126.072-65.171,257.813-119.7,393.164-162.437c44.524-14.077,89.524-26.748,134.839-38.174
			C2689.181,1010.383,2589.015,1004.48,2488.629,1004.341L2488.629,1004.341z M1001.571,1515.513
			c-78.171,61.304-152.549,127.134-223.044,197.19c-74.663,74.136-144.141,153.486-208.696,236.565
			c-62.673,81.87-120.286,167.329-172.573,256.201c-53.416,90.608-100.371,184.988-141.672,281.719
			c-40.818,97.683-75.315,197.725-103.506,299.802c-28.484,103.037-49.548,208.099-64.255,313.989
			c-1.538,11.649-3.01,23.32-4.38,34.991c2.629-5.669,5.295-11.32,7.961-16.97c-0.095-0.311-0.212-0.63-0.293-0.959
			c-0.959-3.512-0.234-6.632,1.296-9.811c70.986-147.429,155.867-288.018,254.575-418.572c17.666-23.35,35.75-46.377,54.258-69.097
			c2.585-3.171,5.193-6.343,7.8-9.529c1.575-1.941,3.157-3.904,4.746-5.845c22.046-27.048,44.531-53.767,67.712-79.841
			c19.358-21.768,39.119-43.206,59.238-64.299c0.769-2.6,2.197-4.937,4.102-7.039c6.943-7.588,13.923-15.11,21.167-22.419
			c5.259-5.31,10.532-10.598,15.85-15.85c0-0.637,0.059-1.311,0.176-1.963c0.769-4.314,1.436-8.628,2.395-12.898
			c0.996-4.548,2.681-9.031,4.16-13.44c1.699-5.09,3.435-10.166,5.354-15.168c3.135-8.101,6.255-16.223,9.397-24.324
			c4.233-11.008,8.606-21.885,13.081-32.776c11.455-27.913,23.101-55.708,34.915-83.481c3.962-9.338,7.844-18.728,12.004-27.993
			c7.354-16.399,14.692-32.798,22.031-49.175c3.904-8.694,7.61-17.483,11.807-26.03c7.727-15.732,15.454-31.465,23.188-47.212
			c4.351-8.848,8.533-17.783,13.213-26.448c8.401-15.461,16.772-30.916,25.166-46.384c5.493-10.129,11.543-19.958,17.424-29.861
			c5.977-10.115,11.909-20.273,18.069-30.308c28.535-46.348,56.843-92.82,84.485-139.717c14.59-24.792,29.224-49.534,43.916-74.26
			c13.923-23.445,28.682-46.355,44.077-68.855c12.319-18.047,25.034-35.815,37.683-53.65c5.881-8.284,11.719-16.575,17.534-24.917
			c3.12-4.512,6.255-9.001,9.397-13.491c3.062-4.417,6.35-8.687,9.668-12.927c-0.71-0.674-1.384-1.333-2.08-2.014
			c-7.397-7.346-14.458-15.205-21.108-23.254C1012.403,1528.623,1006.983,1522.061,1001.571,1515.513L1001.571,1515.513z
			 M468.06,2579.729c-0.037,0.029-0.059,0.073-0.095,0.11c-0.059,0.081-0.139,0.183-0.198,0.271
			C467.869,2579.978,467.965,2579.839,468.06,2579.729L468.06,2579.729z M79.07,3175.47c-2.747,26.66-5.083,53.361-7.002,80.079
			c-4.043,55.66-5.728,111.431-5.845,167.241c-0.22,108.75,6.724,217.258,20.845,325.078
			c11.125,80.251,26.074,159.833,44.839,238.572c6.951,8.5,13.953,16.93,20.991,25.331c11.323,13.469,23.035,26.59,34.702,39.778
			c11.594,13.099,23.145,26.261,34.878,39.261c23.694,26.269,47.959,52.05,72.671,77.329c24.719,25.269,49.885,50.16,75.681,74.301
			c55.73,52.119,113.892,101.59,174.243,148.279c39.47,30.381,79.761,59.63,120.989,87.579c19.79,13.44,39.814,26.543,60.015,39.353
			c-1.143-1.201-1.882-2.563-2.622-4.032c-0.916-1.86-1.069-3.94,0-5.801c0.52-0.868,1.223-1.56,2.08-2.058
			c1.201-0.71,3.083-1.121,4.438-0.601c3.647,1.479,7.302,2.871,10.767,4.739c3.574,1.882,6.987,4.032,10.422,6.13
			c2.175,1.362,4.314,2.75,6.467,4.142c4.98,3.219,10.042,6.339,14.971,9.668c9.141,6.182,18.281,12.382,27.378,18.622
			c9.067,6.2,18.105,12.411,27.188,18.589c1.392,0.952,2.776,1.89,4.167,2.831c0.828-1.139,1.663-2.259,2.483-3.409
			c11.477-15.85,22.932-31.703,34.387-47.553c9.375-12.979,18.574-26.078,27.854-39.107c11.594-16.242,23.328-32.329,35.186-48.351
			c20.112-27.191,40.942-53.818,61.223-80.859c10.503-13.982,21.167-27.85,31.34-42.07c10.605-14.769,21.255-29.498,31.685-44.388
			c21.892-31.212,43.689-62.501,66.211-93.252c11.389-15.579,23.079-30.919,34.775-46.26c5.449-7.119,11.125-14.041,16.743-21.021
			c4.907-6.09,9.741-12.221,14.766-18.168c24.316-28.641,49.014-56.891,74.041-84.873c24.207-27.078,49.841-53.298,78.816-75.33
			c8.379-6.368,16.868-12.557,25.4-18.728c-1.143-3.179-2.271-6.361-3.391-9.529c-14.18-40.14-27.173-80.684-39.214-121.523
			c-24.089-81.716-43.792-164.78-59.202-248.569c-30-162.869-43.345-328.718-40.195-494.268c0.359-24.313,1.135-48.611,2.219-72.902
			c0.608-13.546,1.238-27.103,2-40.638c0.388-7.141,0.557-14.399,1.597-21.482c0.374-2.402,0.725-4.79,1.091-7.178
			c0.549-7.083,1.121-14.143,1.729-21.204c0.725-8.438,1.516-16.86,2.336-25.291c-9.653-7.148-19.307-14.319-28.975-21.46
			c-2.058-0.388-4.021-1.128-5.669-2.278c-13.77-9.426-27.869-18.45-41.331-28.359c-14.626-10.789-28.872-22.119-43.169-33.362
			c0,0,0,0,0.022,0.015c-10.693-8.24-21.335-16.553-32.432-24.185c-6.943-4.768-13.887-9.536-20.852-14.282
			c-6.98-4.805-14.319-9.177-21.46-13.77c-11.909-7.61-23.892-15.11-35.676-22.866c-14.363-9.463-28.462-19.182-42.59-29.004
			c-12.905-8.979-25.496-18.428-38.188-27.708c-5.215-3.831-10.43-7.646-15.652-11.477c-5.925-4.373-11.77-8.899-17.834-13.081
			c-7.727-5.31-15.432-10.635-23.167-15.974c-4.57-3.127-9.082-6.321-13.77-9.258c-13.337-8.357-26.521-17.036-40.21-24.807
			c-13.711-7.786-27.407-15.645-41.25-23.203c-14.18-7.727-28.367-15.476-42.51-23.269c-8.862-4.878-17.71-9.829-26.543-14.773
			c-0.527,2-1.56,3.904-3.157,5.5c-2.351,2.351-5.632,3.582-8.862,3.582c-3.179,0-6.321-1.172-8.591-3.582
			c-7.83-8.335-15.659-16.641-23.95-24.507c-3.391-3.223-6.687-6.614-10.283-9.595c-2.131-1.758-4.277-3.523-6.394-5.317
			c-5.039-2.681-10.063-5.405-14.985-8.291c-2.607-1.157-4.197-3.918-4.666-6.79c-1.216-0.85-2.432-1.699-3.647-2.542
			c-0.732-0.505-1.458-1.018-2.197-1.516c-3.047,6.621-6.057,13.271-9.089,19.907c-1.824,4.014-6.599,7.09-10.693,8.232
			c-1.538,0.417-3.127,0.623-4.709,0.623c-3.157,0-6.306-0.82-9.06-2.432c-0.615-0.359-1.165-0.82-1.729-1.26
			c-4.761,4.666-9.492,9.36-14.29,13.997c-1.838,1.794-4.021,3.062-6.313,3.809c-47.571,48.801-93.193,99.485-136.589,152.043
			c-13.081,16.172-25.986,32.446-38.723,48.882c0.022-0.044,0.059-0.081,0.081-0.125c-0.117,0.161-0.234,0.322-0.352,0.454
			c0.022-0.022,0.059-0.059,0.081-0.081c-0.176,0.22-0.352,0.461-0.527,0.696c0.037-0.059,0.073-0.117,0.117-0.176
			c-0.081,0.081-0.139,0.176-0.198,0.257c0.022-0.015,0.059-0.059,0.081-0.081c-0.044,0.044-0.059,0.066-0.081,0.103l-0.022,0.022
			c-0.037,0.007-0.037,0.029-0.059,0.051c0,0.015-0.022,0.015-0.022,0.015s0,0,0.022,0c-0.022,0.022-0.044,0.044-0.059,0.081
			c0,0,0,0,0-0.015c0,0.015,0,0.015-0.022,0.037c-0.081,0.103-0.132,0.161-0.176,0.249c0-0.007,0-0.029,0-0.029
			c-99.529,129.36-186.716,268.125-259.058,414.47c-3.867,7.83-7.676,15.721-11.44,23.58c-1.194,2.629-4.182,4.691-6.885,5.629
			c-6.98,14.733-13.828,29.52-20.537,44.37c-1.333,2.941-4.548,4.391-7.69,4.391C79.21,3175.47,79.151,3175.47,79.07,3175.47
			L79.07,3175.47z M255.408,4364.06c40.239,94.373,86.118,186.112,137.571,274.893c52.566,90.78,111.431,177.857,175.166,261.189
			c62.38,80.24,129.426,156.61,200.947,228.831c74.297,75.047,153.875,144.898,237.188,209.828
			c83.892,64.431,171.599,123.501,262.874,176.99c60.996,35.761,123.706,68.581,187.676,98.712
			c1.509-31.15,3.633-62.289,6.321-93.329c2.131-24.58,4.761-49.124,7.632-73.623c1.289-11.067,2.681-22.13,4.146-33.189
			c-7.625-0.37-13.77-7.91-13.77-15.268c0-1.373,0.205-2.743,0.564-4.05c-1.443-1.121-2.871-2.259-4.299-3.402
			c-0.974-0.769-1.912-1.608-2.864-2.399c-3.325-1.509-6.621-3.102-9.719-5.021c-4.16-2.589-8.071-5.541-11.909-8.588
			c-6.057-4.83-12.063-9.752-18.047-14.692c-12.261-10.1-24.185-20.581-35.867-31.329c-23.43-21.599-45.417-44.78-66.606-68.559
			c-43.293-48.57-83.657-99.591-123.948-150.63c-20.054-25.422-40.005-50.903-59.656-76.611
			c-18.677-24.452-36.958-49.2-55.525-73.722c-19.812-26.14-39.8-52.178-59.634-78.318c-9.17-12.07-18.384-24.123-27.29-36.372
			c-10.745-14.748-21.497-29.48-32.249-44.25c-2.82-3.889-5.332-8.049-7.983-12.048c-5.859-8.829-11.726-17.681-17.593-26.521
			c-4.966-7.489-9.946-14.989-14.905-22.478c-1.589-2.391-3.083-4.742-4.519-7.222c-9.47-16.421-18.904-32.831-28.381-49.251
			c-11.36-19.721-22.456-39.547-33.56-59.418c-2.703-4.841-2.446-10.609,0.227-15.103c-3.12-1.787-6.277-3.538-9.39-5.339
			c-0.71-0.33-1.414-0.67-2.124-1c-0.015,0.022-0.029,0.029-0.044,0.051c-0.256,0.71-0.571,1.329-1.003,1.908
			c-5.061,6.552-9.939,13.323-15.454,19.494c-1.963,2.219-4.922,3.299-7.888,3.299c-2.058,0-4.094-0.531-5.823-1.531
			c-5.024-2.94-7.551-10.4-4.058-15.479c4.211-6.101,8.694-12.012,13.125-17.959c-4.365-2.172-8.73-4.34-13.088-6.511
			c-2.373-1.179-4.731-2.38-7.097-3.582c-2.461,1.922-5.435,3.003-8.54,3.003c-2.41,0-4.863-0.59-7.119-1.78
			c-7.449-3.94-14.927-7.852-22.141-12.202c-7.91-4.768-15.776-9.599-23.621-14.44c-14.905-9.221-29.714-18.589-44.407-28.11
			c-29.941-19.38-59.436-39.43-88.528-60.059c-59.158-41.942-116.536-86.451-171.855-133.37
			c-54.609-46.352-107.505-94.801-158.042-145.562c-24.954-25.049-49.27-50.688-73.044-76.86
			c-11.807-12.96-23.481-26.049-34.841-39.408c-4.021-4.731-8.005-9.492-11.946-14.282
			c28.052,103.792,63.516,205.503,104.941,304.673V4364.06z M1545.489,5654.221c99.668,41.602,201.768,76.721,305.969,105.18
			c102.803,28.059,207.554,48.922,313.103,63.479c107.512,14,215.61,21.192,324.067,21.423
			c109.915,0.187,219.653-7.192,328.645-21.482c106.897-14.832,212.607-36.489,316.736-64.958
			c56.682-15.491,112.764-33.223,168.12-52.932c-0.667-1.458-1.34-2.93-1.809-4.398c-0.842-2.629-1.296-5.332-1.531-8.06
			c-0.469-5.512-0.33-11.012,0-16.542c0.754-11.92,3.032-23.789,5.75-35.398c1.003-4.281,2.322-8.481,3.516-12.689
			c1.113-3.871,2.058-7.812,3.34-11.624c5.266-15.729,10.737-31.337,16.765-46.816c3.01-7.833,6.394-15.733,10.181-23.222
			c3.494-6.87,6.958-13.751,11.301-20.149c6.899-10.181,14.568-19.893,22.852-29.011c-1.26,0-2.49,0-3.75,0
			c-39.661-0.019-79.321-0.901-118.938-2.729c-79.98-3.662-159.727-11.492-238.975-22.892
			c-155.742-22.401-309.177-60.341-457.632-112.441c-41.199-14.458-81.958-30.139-122.344-46.747
			c-2.402,1.809-5.493,2.71-8.621,2.71c-4.153,0-8.342-1.531-10.942-4.453c-1.553-1.758-2.937-3.629-4.373-5.489
			c-0.359-0.78-0.688-1.549-1.04-2.311c-12.605,2.571-25.225,5.153-37.786,7.961c-19.255,4.259-38.43,8.679-57.649,12.979
			c-3.545,0.791-7.09,1.571-10.635,2.362c-12.847,3.918-25.693,7.848-38.577,11.627c-18.135,5.321-36.394,10.082-54.661,14.931
			c-19.204,5.101-38.445,10.023-57.861,14.242c-18.259,3.981-36.621,7.5-55.063,10.551c-22.229,3.68-44.451,6.768-66.826,9.159
			c-19.321,2.08-38.76,3.439-58.125,5.032c-39.104,3.197-78.149,6.588-117.319,8.61c-37.749,1.919-75.557,3.08-113.335,4.329
			c-13.953,0.461-27.861,0.75-41.799,0.831c-0.857,0-1.692,0-2.556,0c-11.865,0-23.716-0.611-35.588-1.062
			c-5.53-0.22-11.06-0.908-16.545-1.358c-4.204-0.33-8.372-0.681-12.554-1.04c-14.172,1.388-28.367,2.669-42.546,3.951
			c-29.561,2.648-59.187,4.838-88.806,7.017c-0.769,0.374-1.567,0.692-2.388,0.923c-0.3,0.081-0.608,0.158-0.93,0.22
			c-1.37,11.199-2.703,22.397-3.962,33.618c-2.747,24.5-4.98,49.043-6.995,73.623c-2.813,34.208-4.856,68.467-6.226,102.777
			C1499.793,5634.372,1522.579,5644.45,1545.489,5654.221L1545.489,5654.221z M3935.69,2129.239
			c-0.835-2.739-1.67-5.471-2.476-8.218c0.908,9.99,1.831,19.973,2.695,29.971c0.476,5.251,0.842,10.51,1.165,15.776
			c3.516-0.674,7.039-0.535,10.4,0.271C3943.541,2154.441,3939.579,2141.851,3935.69,2129.239z M3203.649,1151.88
			c-3.003,0.103-6.035,0.132-9.038,0.132c-6.079-0.015-12.209-0.271-18.311-0.703c-1.729,0.725-3.567,1.165-5.486,1.501
			c8.826,2.878,17.681,5.713,26.477,8.687c2.139,0.732,4.263,1.501,6.409,2.234
			C3202.733,1159.907,3202.719,1155.747,3203.649,1151.88L3203.649,1151.88z M3355.97,3570.041c0.044-0.081,0.125-0.15,0.154-0.209
			c0.037-0.051,0.037-0.073,0.081-0.103l0.015-0.018l-0.037-0.04c-2.329,3.04-4.673,6.079-7.039,9.119
			C3351.444,3575.889,3353.693,3572.959,3355.97,3570.041z M3320.785,3604.882c0.037,3.138,0.081,6.277,0.117,9.419
			c0.022-0.022,0.022-0.04,0.037-0.04C3320.88,3611.119,3320.844,3607.999,3320.785,3604.882L3320.785,3604.882z M2007.83,2198.137
			c0.366-0.19,0.732-0.388,1.099-0.579c-0.022,0-0.059,0-0.081,0L2007.83,2198.137z M1977.977,1441.04l0.015,0.198
			c0-0.081,0-0.139,0-0.22C1977.992,1441.018,1977.992,1441.018,1977.977,1441.04z M1270.113,2784.478
			c0.015-0.015,0.037-0.051,0.059-0.066c0.11-1.274,0.249-2.534,0.388-3.801C1270.421,2781.9,1270.267,2783.182,1270.113,2784.478
			L1270.113,2784.478z M3205.56,2653.272c-1.208-0.894-2.424-1.794-3.655-2.673v0.022L3205.56,2653.272z M3216.803,2614.109
			c-1.729,0.564-3.472,1.099-5.2,1.648c0,0,0.022,0.022,0.037,0.022C3213.353,2615.23,3215.074,2614.688,3216.803,2614.109z
			 M1387.923,3891.6c3.384-2.139,6.826-4.2,10.334-6.16c3.259-1.798,6.841-2.71,10.393-2.71c5.259,0,10.459,1.97,14.399,5.911
			c3.831,3.82,5.977,9.06,5.977,14.469c0,4.702-1.824,10.1-5.215,13.59c2.058,1.41,3.677,3.241,4.819,5.321
			c2.798,2.01,5.596,4.028,8.408,6.05c7.573,5.431,15.527,10.411,23.284,15.589c6.394,4.299,12.891,8.43,19.336,12.631
			c27.048,17.6,54.038,35.248,80.801,53.28c29.363,19.768,58.667,39.599,88.418,58.792c0.359,0.227,0.732,0.439,1.091,0.667
			c1.458,0.692,2.908,1.432,4.38,2.102c11.609,5.31,23.21,10.649,34.841,15.901c52.859,23.95,105.088,49.219,158.189,72.598
			c39.983,16.623,80.105,32.893,119.348,51.222c18.735,8.73,37.236,17.849,55.833,26.869c8.811,4.292,17.593,8.72,26.463,12.913
			c20.728,8.529,41.396,17.19,61.868,26.279c0.703,0.308,1.392,0.619,2.087,0.93c11.616,4.08,23.196,8.137,34.885,11.938
			c23.101,7.511,46.326,14.89,69.646,21.72c24.192,7.101,48.552,13.22,73.096,18.999c19.548,4.603,39.089,8.822,58.865,12.162
			c5.156-2.12,10.313-4.219,15.454-6.39c147.158-62.351,287.886-139.23,420.242-228.801c43.264-29.308,85.635-59.989,127.046-91.897
			c9.69-7.5,19.329-15.081,28.909-22.731c49.893-40.06,98.181-82.002,144.954-125.72c22.998-21.519,45.557-43.51,67.698-65.929
			c0.403-0.392,0.791-0.802,1.179-1.201c1.025-1.04,2.021-2.062,3.04-3.08c0.916-0.919,1.816-1.86,2.703-2.78
			c0.542-0.509,1.047-1.04,1.56-1.571c35.251-36.05,69.397-73.169,102.451-111.281c8.591-9.899,17.109-19.871,25.562-29.908
			c-0.022-22.419-0.022-44.821-0.125-67.251c-0.095-27.341-0.491-54.701-1.245-82.05c-0.74-26.73-2.146-53.511-4.885-80.131
			c-0.776-7.332-1.516-14.67-2.278-21.991c-1.553-11.569-2.908-23.177-4.878-34.669c-2.344-13.74-4.504-27.528-7.134-41.221
			c-5.347-27.667-11.001-55.338-16.106-83.068c-2.563-14.022-5.354-28.011-7.683-42.081c-2.322-14.019-4.922-28.052-6.936-42.129
			c-2.205-15.161-4.38-30.33-6.563-45.513c-2.292-16.077-4.021-32.289-6.021-48.409c-3.267-26.378-5.691-52.899-8.203-79.369
			c-2.505-26.342-5.156-52.661-8.276-78.948c-3.289-27.971-6.592-55.942-9.917-83.921c-3.464-29.121-7.104-58.235-10.225-87.4
			c-1.208-11.338-2.512-22.668-3.625-34.014c-0.754-7.786-1.516-15.579-2.256-23.357c-0.535-5.383-1.399-10.847-1.589-16.26
			c-0.22-6.768-0.469-13.542-0.71-20.303c-0.037-1.128-0.059-2.241-0.059-3.376c-5.317-3.809-10.649-7.573-15.996-11.345
			c-3.955,0-7.874-0.264-11.763-0.857c-6.233-0.967-12.312-5.361-15.747-10.54c-1.846-2.739-3.252-5.493-3.596-8.833
			c-0.029-0.425-0.066-0.864-0.066-1.296c-14.678-9.99-29.473-19.805-44.363-29.451c-29.89-19.343-60.19-38.02-90.879-56.06
			c-4.819-2.82-9.631-5.64-14.473-8.423c-79.307-45.696-161.279-86.675-245.215-123.157c-4.739-2.051-9.47-4.094-14.209-6.094
			c-167.476-70.54-342.012-123.75-520.964-155.735c-33.853-6.064-67.874-11.345-101.96-15.989c0.022,0,0.044,0.015,0.059,0.015
			c-0.037,0-0.081-0.015-0.117-0.015h-0.022c-0.022,0-0.059,0-0.081-0.022c-0.161-0.022-0.286-0.044-0.432-0.044
			c0.066,0,0.125,0,0.205,0c-1.509-0.19-2.981-0.388-4.482-0.586c0.938,0.146,1.89,0.256,2.834,0.396
			c-4.885-0.645-9.792-1.274-14.67-1.897c-1.516,0.828-3.032,1.677-4.534,2.498c-14.656,7.983-29.429,15.784-44.216,23.525
			c-29.055,15.183-57.371,31.56-85.481,48.398c-26.309,15.754-51.98,32.578-78.091,48.655
			c-28.982,17.856-58.198,35.295-87.078,53.313c-12.576,7.874-24.836,16.311-36.914,24.91c-13.066,9.353-25.986,18.838-38.796,28.55
			c-43.081,32.622-86.411,64.929-129.251,97.844c-49.805,39.324-98.979,79.519-146.763,121.318
			c-13.257,11.602-26.492,23.21-39.529,35.039c-11.814,10.708-23.298,21.709-34.878,32.651
			c-11.265,10.635-22.083,21.775-32.974,32.827c-12.751,12.964-25.503,25.92-38.291,38.87c-4.38,4.46-8.928,8.73-13.477,13.008
			c-2.761,2.615-5.522,5.2-8.269,7.8c-0.183,0.161-0.344,0.322-0.513,0.476c-0.3,2.805-0.593,5.618-0.879,8.416
			c1.106,1.509,1.978,3.208,2.542,5.273c1.238,4.541,0.586,9.5-1.78,13.557c-0.82,1.414-1.846,2.681-3.003,3.809
			c-0.161,1.611-0.293,3.193-0.447,4.805c-1.223,13.22-2.344,26.448-3.354,39.661c0,1.809-0.022,3.625-0.022,5.435
			c0,2.512,0,4.966-0.198,7.471c-0.22,2.49-0.41,5.002-0.608,7.493c-0.864,10.869-1.729,21.738-2.388,32.607
			c-1.326,21.614-2.307,43.253-3.032,64.911c-0.212,6.489-0.41,12.96-0.579,19.449c-1.575,69.031-0.242,138.142,3.86,207.063
			c3.625,60.48,9.47,120.82,17.498,180.857c11.353,83.503,26.887,166.443,46.758,248.313c18.604,76.659,41.082,152.34,66.995,226.82
			V3891.6z M863.421,4566.512l4.292-5.801c-1.436,1.919-2.886,3.838-4.336,5.761C863.399,4566.472,863.399,4566.49,863.421,4566.512
			z M1047.23,4876.729c0.007,0.011,0.007,0.022,0.022,0.033C1047.237,4876.751,1047.237,4876.74,1047.23,4876.729z
			 M1480.743,5373.809c-2.629-2.08-5.2-4.167-7.734-6.328c2.549,2.179,5.12,4.289,7.734,6.369
			C1480.743,5373.831,1480.743,5373.831,1480.743,5373.809z M2328.082,5275.13c3.677-1.04,7.412-2.08,11.118-3.08
			c-0.015,0-0.037-0.019-0.037-0.019C2335.45,5273.05,2331.744,5274.09,2328.082,5275.13z M1419.227,4039.311
			c-0.417-0.491-0.806-1.029-1.135-1.589c0,0-0.022,0-0.044,0C1418.399,4038.282,1418.802,4038.82,1419.227,4039.311z
			 M934.503,4471.67l-0.33,0.469c3.201-4.16,6.372-8.269,9.492-12.319c-3.04,3.93-6.079,7.852-9.119,11.781
			c0.19-0.242,0.374-0.502,0.564-0.729C934.92,4471.14,934.7,4471.399,934.503,4471.67z M1162.484,4174.531l-0.264,0.359
			c0.337-0.429,0.667-0.839,0.981-1.278C1162.967,4173.93,1162.711,4174.219,1162.484,4174.531z M1164.08,4172.381
			c-0.293,0.388-0.601,0.78-0.901,1.168l-0.161,0.22C1163.377,4173.3,1163.729,4172.85,1164.08,4172.381z M668.612,2446.333
			c0.476,0.425,0.945,0.857,1.414,1.289c0.044,0.015,0.095,0.029,0.139,0.051C669.637,2447.227,669.132,2446.78,668.612,2446.333z
			 M630.401,2415.059h0.022c0.41-0.41,0.82-0.806,1.26-1.216C631.243,2414.231,630.833,2414.649,630.401,2415.059z
			 M2074.327,1381.751c-0.645,2.388-1.897,4.563-3.508,6.416c0.044,5.076-1.179,10.144-3.882,14.612
			c-3.289,5.435-6.753,9.88-12.275,13.264c-4.534,2.791-9.06,4.666-14.268,5.588c-5.281,0.93-10.386,1.282-15.703,1.45
			c-2.622,0.088-5.259,0.198-7.888,0.3c0.571,4.951,1.121,9.895,1.729,14.839c2.388,17.336,5.332,34.563,8.767,51.738
			c3.494,17.424,7.471,34.739,11.184,52.119c7.471,35.273,13.301,70.869,20.068,106.282c7.083,37.009,14.407,73.938,23.972,110.442
			c9.39,35.911,20.039,71.506,31.458,106.816c11.36,35.171,24.419,69.749,35.413,105.044c5.391,17.322,10.056,34.9,14.766,52.405
			c4.805,17.842,7.749,36.182,10.942,54.36c1.37,7.771,2.571,15.593,3.721,23.401c2.109-1.267,4.189-2.578,6.196-4.021
			c3.164-1.838,6.57-2.769,10.239-2.769c5.354,0,10.554,2.139,14.341,5.955c7.632,7.625,8.064,21.094,0,28.674
			c-7.91,7.412-17.205,13.022-26.389,18.655c-5.918,3.64-11.829,7.214-17.747,10.825c-0.139,0.322-0.293,0.652-0.469,0.959
			c-0.652,1.121-1.531,2.007-2.644,2.651c-1.157,0.688-2.322,0.981-3.479,0.981c-0.293,0-0.593-0.022-0.879-0.059
			c-7.28,4.438-14.561,8.87-21.841,13.301c78.333,11.865,156.086,27.7,232.939,46.897c87.942,21.973,174.624,48.889,259.548,80.53
			c86.001,32.029,170.193,69.294,252.034,110.889c105.029,53.35,206.309,114.104,302.879,181.575
			c0.381-4.175,0.791-8.35,1.223-12.532c0.271-2.732,0.901-5.002,2.9-7.002c1.838-1.846,4.387-2.9,6.995-2.9
			c5.01,0,10.481,4.534,9.932,9.902c-0.491,4.761-0.908,9.507-1.296,14.282c0.828-0.264,1.648-0.535,2.468-0.791
			c10.166-3.245,20.032-7.39,29.897-11.389c16.194-7.046,32.395-14.033,48.413-21.409c18.867-8.687,37.72-17.395,56.58-26.104
			c6.46-3.003,12.92-5.991,19.387-8.972c0.315-0.146,0.645-0.308,0.974-0.447c28.337-13.103,56.667-26.228,84.851-39.609
			c8.789-4.175,17.314-9.001,25.95-13.491c6.526-3.391,13.015-6.753,19.395-10.43c17.483-10.107,34.951-20.149,52.266-30.549
			c34.38-20.654,68.723-41.375,102.839-62.49c7.786-4.819,15.337-10.093,22.991-15.132c6.218-4.102,12.334-8.269,18.435-12.561
			c14.224-10.005,28.191-20.229,42.151-30.608c7.163-5.684,14.319-11.404,21.46-17.058c7.148-5.691,13.989-11.785,20.962-17.644
			c14.678-12.4,29.106-25.122,43.909-37.368c14.993-12.371,30.337-24.47,46.267-35.647c7.5-5.273,14.956-10.642,22.764-15.461
			c7.646-4.753,15.403-9.675,23.657-13.323c0.388-0.168,0.769-0.33,1.165-0.513c-0.139-2.534-0.286-5.083-0.454-7.61
			c-0.476-6.724-0.828-13.455-1.421-20.156c-1.216-14.268-2.534-28.513-3.794-42.751c-1.655-18.611-3.047-37.266-4.717-55.891
			c-0.835-9.448-1.37-18.999-2.549-28.425c-1.091-8.694-2.175-17.38-3.267-26.06c-2.263-12.935-4.285-25.891-7.002-38.723
			c-3.149-14.802-6.357-29.597-9.719-44.363c-6.423-28.389-12.239-56.865-17.893-85.43c-4.98-25.166-9.668-50.405-15.769-75.344
			c-3.545-14.546-7.141-29.055-10.935-43.521c-3.853-14.583-7.83-29.114-11.865-43.652c-6.914-24.99-14.385-49.797-21.76-74.648
			c-8.276-27.905-16.494-55.811-25.73-83.416c-0.879-2.71-1.919-5.266-2.615-7.954c-105.623-72.283-216.401-136.853-331.531-192.715
			c-35.105-16.846-70.635-32.878-106.509-48.098c1.055,0.454,2.117,0.908,3.164,1.34c-1.355-0.586-2.754-1.157-4.131-1.75
			c-0.337-0.139-0.667-0.271-0.974-0.41c0.286,0.139,0.601,0.249,0.901,0.388c-161.873-67.925-331.253-118.22-503.65-151.15
			c-2.432-0.469-4.753-1.78-6.775-3.479c-0.996-0.417-1.992-0.901-2.93-1.458c-22.317-4.05-44.707-7.764-67.126-11.082
			c-3.64-0.527-7.244-3.867-9.009-6.921c-1.282-2.161-1.963-4.607-2.043-7.097c-100.986,28.11-200.193,62.666-296.799,103.396
			c-128.21,54.47-251.404,120.227-368.423,195.703C2075.038,1377.466,2074.92,1379.649,2074.327,1381.751L2074.327,1381.751z
			 M2782.689,1064.773c2.424,0.374,4.841,0.784,7.266,1.179c-0.601-0.835-1.143-1.692-1.641-2.593
			C2786.439,1063.85,2784.564,1064.29,2782.689,1064.773L2782.689,1064.773z M3986.285,2195.149
			c-0.747-0.959-1.494-1.948-2.241-2.908c0,0.022,0,0.037,0,0.059C3984.791,2193.238,3985.538,2194.212,3986.285,2195.149
			L3986.285,2195.149z M4218.763,3911.88c-0.513-2.71-1.003-5.431-1.523-8.181c0.513,2.75,1.011,5.512,1.501,8.262
			C4218.741,3911.921,4218.763,3911.899,4218.763,3911.88z M4586.615,3088.25c0,0,0,0-0.022,0l-0.542,2.512
			C4586.241,3089.909,4586.424,3089.092,4586.615,3088.25z M3430.721,5465.542c4.753-0.143,9.5-0.3,14.253-0.451
			c4.307-0.161,8.591-0.201,12.898-0.22c2.102,0,4.197,0,6.299-0.022c4.49-3.318,9.009-6.65,13.499-9.961
			c6.965-5.138,14.275-9.847,21.409-14.769c6.482-4.46,12.876-9.027,19.497-13.279c9.265-5.999,18.567-12.008,27.847-18.01
			c8.042-5.2,16.428-9.892,24.639-14.81c14.333-8.621,29.092-16.579,43.638-24.818c16.97-9.591,33.684-19.453,50.391-29.461
			c8.591-5.142,16.853-10.92,25.254-16.381c7.727-4.999,15.198-10.389,22.756-15.63c14.634-10.118,29.084-20.5,43.726-30.619
			c14.37-9.95,28.923-19.64,43.286-29.619c16.978-11.811,33.882-23.723,50.64-35.841c14.495-10.47,28.821-21.16,43.293-31.641
			c29.451-21.28,59.561-41.602,88.799-63.179c10.188-7.511,20.251-15.161,30.3-22.83c28.096-22.603,55.452-46.04,81.248-71.323
			c13.799-13.539,27.341-27.268,40.569-41.389c4.753-5.05,9.324-10.269,13.835-15.56c0.234-0.861,0.454-1.75,0.688-2.6
			c3.611-13.857,7.075-27.729,10.452-41.609c7.039-29.041,13.594-58.202,19.636-87.47c11.711-56.729,21.438-113.829,29.253-171.222
			c0.037-0.377,0.095-0.751,0.161-1.121c0.066-0.608,0.146-1.198,0.227-1.809c19.417-146.47,25.671-294.558,18.889-442.148
			c-2.981-65.299-8.606-130.452-16.787-195.312c-8.87-2.849-17.681-5.65-26.682-8.009c-8.408-2.179-16.868-4.12-25.32-6.101
			c-17.563-4.12-34.893-8.939-52.119-14.238c-16.772-5.182-33.449-10.671-50.273-15.583c-17.351-5.028-34.695-9.961-52.119-14.751
			c-35.588-9.737-71.279-19.417-106.208-31.417c-10.518-3.629-21.042-7.24-31.582-10.873c-8.621-2.959-17.117-6.387-25.671-9.569
			c-18.069-6.75-36.086-13.609-54.119-20.479c-16.355-6.24-32.791-12.202-49.27-18.142c-16.23-5.859-32.41-11.829-48.831-17.12
			c-17.988-5.808-35.918-11.968-54.038-17.307c-17.651-5.171-35.303-10.36-52.961-15.549c-21.636-6.383-43.271-12.751-64.907-19.131
			c-18.054-5.31-35.955-11.261-53.899-16.89c-36.46-11.411-72.583-23.833-108.794-36.013c-10.049-3.376-20.046-6.826-30.081-10.298
			c0.19,1.849,0.374,3.691,0.586,5.508c0.366,2.241,0.857,4.442,1.428,6.632c1.545,5.991-0.945,12.4-6.335,15.538
			c-2.058,1.223-4.504,1.802-6.958,1.802c-4.819,0-9.675-2.271-11.858-6.749c-2.021-4.113-3.757-8.309-5.12-12.711
			c-0.52-1.641-0.842-3.369-1.26-5.05c-0.82-3.34-1.289-6.749-1.853-10.129c-1.377-8.199-1.648-16.63-2.102-24.928
			c-0.139-2.472-0.256-4.962-0.33-7.434c-0.037,0.051-0.095,0.092-0.139,0.154c-22.515,25.917-45.601,51.277-69.185,76.15
			c-37.156,39.327-75.674,77.336-115.305,114.159c-43.367,40.269-88.33,78.86-134.561,115.829
			c-11.887,9.562-23.848,19.01-35.896,28.352c-64.812,50.248-132.034,97.427-201.694,140.72
			c-67.874,42.209-137.659,81.427-209.399,116.719c-28.945,14.231-58.147,27.96-87.568,41.151c0.029,0.069,0.081,0.128,0.11,0.187
			c3.831,6.691,4.299,15.022,5.222,22.482c0.549,4.369,0.667,8.811,0.762,13.202c0.19,7.939,0.476,15.89,0.747,23.83
			c0.593,17.398,0.278,34.819-0.527,52.218c-1.685,36.581-3.984,73.242-8.591,109.592c-2.183,17.128-4.512,34.189-7.368,51.218
			c-2.834,16.762-5.552,33.542-8.152,50.351c-1.113,8.701-2.205,17.38-3.311,26.07c-1.194,9.309-1.714,18.75-2.52,28.1
			c1.121,23.181,2.651,46.34,4.46,69.51c2.886,36.899,6.416,73.751,9.631,110.629c3.376,38.902,6.299,77.813,8.965,116.77
			c0.813,11.913,1.479,23.84,2.102,35.75c0.447,3.611,0.952,7.222,1.392,10.833c3.582,29.601,5.757,59.348,8.057,89.048
			c1.091,14.051,2.432,28.07,3.962,42.059c1.157,4.611,2.307,9.232,3.42,13.843c2.878,11.95,5.735,23.888,8.628,35.837
			c3.494,14.572,7.493,29.022,11.36,43.521c1.787,6.702-1.392,13.722-7.288,16.912c14.465,5.68,28.982,11.25,43.572,16.641
			c36.877,13.649,74.128,26.349,111.636,38.188c75.007,23.661,151.194,43.59,228.12,59.931
			c60.132,12.77,120.732,23.199,181.641,31.439c75.11,9.99,150.63,16.542,226.348,19.702c38.064,1.579,76.165,2.271,114.265,2.047
			C3392.599,5466.479,3411.664,5466.102,3430.721,5465.542L3430.721,5465.542z M3412.872,5507.341
			c-0.022,0.018-0.044,0.04-0.059,0.047c-0.073,0.593-0.132,1.183-0.154,1.772
			C3412.704,5508.549,3412.762,5507.941,3412.872,5507.341z M3419.193,5498.379c0.828-0.641,1.648-1.238,2.468-1.868
			c-0.696,0.019-1.392,0.037-2.08,0.037c-0.168,0.681-0.366,1.352-0.601,2.003
			C3419.054,5498.489,3419.113,5498.431,3419.193,5498.379L3419.193,5498.379z M4169.339,5003.211
			c-1.75,1.97-3.501,3.911-5.266,5.849c-0.044,0.081-0.073,0.161-0.11,0.22C4165.765,5007.25,4167.552,5005.24,4169.339,5003.211
			L4169.339,5003.211z M4221.253,4881.801c-7.2-3.3-14.041-7.123-20.735-11.32c-0.776,3.53-1.56,7.039-2.344,10.547
			c-2.791,12.363-5.676,24.723-8.665,37.042C4200.211,4906.081,4211,4894.172,4221.253,4881.801z M4399.012,4914.222
			c-0.007,0-0.007,0-0.029,0c-15.19,19.237-30.593,38.229-46.194,56.909C4368.47,4952.37,4383.895,4933.4,4399.012,4914.222
			L4399.012,4914.222z M4973.993,3517.369c-1.479,40.591-4.16,81.13-7.639,121.6c-3.845,44.67-9.163,89.249-15.63,133.66
			c-8.613,60.472-19.38,120.652-32.175,180.352c-16.399,76.399-36.899,151.919-60.469,226.421
			c-23.796,75.128-51.892,148.758-82.646,221.297c-59.67,140.801-133.711,275.391-218.503,402.59
			c-22.097,33.149-45,65.779-68.672,97.812c-0.425,5.61-2.856,10.898-6.833,14.879c-2.183,2.179-5.186,4.219-8.401,5.541
			c-63.523,84.148-132.334,164.3-205.759,239.89c-106.97,110.13-224.883,209.469-350.112,298.18
			c-249.031,176.481-531.929,304.871-827.849,379.04c-151.011,37.83-305.911,60.451-461.221,69.591
			c-46.948,2.739-93.97,4.098-140.962,4.098c-109.57,0-219.126-7.39-327.722-21.727c-76.758-10.151-152.915-23.76-228.399-40.942
			c-75.19-17.109-149.436-38.21-222.642-62.399c-146.484-48.391-288.208-111.401-423.23-185.911
			c-137.805-76.069-267.539-166.311-388.594-266.789c-120.974-100.44-231.665-213.032-331.414-334.49
			c-98.232-119.601-185.171-248.221-259.805-383.76c-74.385-135.103-135.425-277.683-183.501-424.171
			c-24.697-75.19-45.22-151.71-62.439-228.93c-1.978-8.892-3.904-17.779-5.771-26.66c-1.018-1.392-2.036-2.772-3.054-4.149
			c-3.237-19.611-8.086-38.892-12.81-58.272c-1.062-4.329-2.073-8.69-3.098-13.048c1.97,2.6,3.94,5.189,5.903,7.797
			c-8.123-45.608-14.949-91.428-20.793-137.369c-9.866-77.6-15.615-155.61-18.406-233.76c-2.761-77.6-1.113-155.281,3.413-232.778
			c9.104-155.38,33.552-310.012,71.521-460.913c37.742-149.978,90.901-295.899,155.808-436.187
			c130.444-281.953,316.56-537.964,541.113-752.3c58.22-55.569,119.326-108.179,182.783-157.771
			c-0.769-1.033-1.531-2.08-2.278-3.127c-1.882-2.673-2.959-5.815-3.765-8.936c-2.043-7.815,2.49-17.6,10.942-19.307
			c1.941-0.374,3.889-0.762,5.867-0.681c6.907,0.308,13.008,4.49,14.89,11.338c0.059,0.249,0.117,0.535,0.176,0.791
			c49.006-37.28,99.331-72.781,150.762-106.472c65.581-42.935,133.411-82.397,202.749-118.894
			c69.302-36.489,140.64-68.892,213.032-98.745c285.667-117.847,593.921-178.469,902.652-183.347
			c157.551-2.49,315.117,10.986,470.339,37.8c153.42,26.521,303.999,68.481,449.553,123.596
			c143.84,54.456,282.275,122.571,413.591,202.581c130.664,79.622,253.594,172.192,367.595,274.153
			c225.952,202.119,413.503,447.041,552.004,716.528c69.917,135.981,126.548,278.84,170.325,425.325
			c45.029,150.586,74.224,305.588,90.11,461.887c7.859,77.399,11.711,155.288,11.418,233.09
			C4975.809,3442.72,4975.333,3480.052,4973.993,3517.369"/>
		<path id="path26" fill="none" stroke="#1A1817" stroke-width="7.5" stroke-linecap="round" stroke-linejoin="round" d="
			M3616.683,1273.008c-0.652-0.286-1.311-0.557-1.963-0.835"/>
		<path id="path28" fill="none" stroke="#1A1817" stroke-width="7.5" stroke-linecap="round" stroke-linejoin="round" d="
			M1047.252,4876.758c-0.015-0.007-0.015-0.018-0.022-0.029"/>
	</g>
</g>
</svg>
